<?xml version="1.0" encoding="UTF-8"?>
<!DOCTYPE svg PUBLIC "-//W3C//DTD SVG 1.1//EN" "http://www.w3.org/Graphics/SVG/1.1/DTD/svg11.dtd">
<!-- Creator: CorelDRAW 2020 (64-Bit) -->
<svg xmlns="http://www.w3.org/2000/svg" xml:space="preserve" width="337.337mm" height="349.926mm" version="1.1" style="shape-rendering:geometricPrecision; text-rendering:geometricPrecision; image-rendering:optimizeQuality; fill-rule:evenodd; clip-rule:evenodd"
viewBox="0 0 33733.7 34992.6"
 xmlns:xlink="http://www.w3.org/1999/xlink"
 xmlns:xodm="http://www.corel.com/coreldraw/odm/2003">
 <defs>
  <style type="text/css">
   <![CDATA[
    .fil0 {fill:#F50414}
   ]]>
  </style>
 </defs>
 <g id="Layer_x0020_1">
  <metadata id="CorelCorpID_0Corel-Layer"/>
  <path class="fil0" d="M33728.04 25360.42l0 -1968.95c0,0 -3231.85,0 -3729.06,0 -487.65,0 -516.33,-517.1 -516.33,-517.1l0 -11386.06c0,0 1759.35,0 2180.06,0 411.16,0 411.16,417.65 411.16,417.65l0 4554.43 -1864.53 0 0 1760.12 3518.7 0 0 -19.89 0 -9.95 0 -29.83 0 -29.83 0 -39.78 0 -49.72 0 -49.72 0 -59.67 0 -59.66 0 -69.61 0 -69.61 0 -79.55 0 -89.5 0 -89.5 0 -89.49 0 -99.45 0 -99.44 0 -109.38 0 -109.39 0 -119.33 0 -119.33 0 -119.33 0 -119.33 0 -129.27 0 -129.28 0 -129.27 0 -129.28 0 -139.21 0 -139.22 0 -139.22 0 -139.22 0 -139.22 0 -149.16 0 -139.22 0 -139.22 0 -149.16 0 -149.16 0 -139.22 0 -149.16 0 -139.22 0 -139.22 0 -149.16 0 -139.22 0 -139.22 0 -139.22 0 -139.21 0 -129.28 0 -139.22 0 -129.27 0 -129.27 0 -129.28 0 -119.33 0 -119.33 0 -119.33 0 -109.38 0 -109.39 0 -109.39 0 -99.44 0 -99.44 0 -99.44 0 -89.5 0 -79.55 0 -79.56c0,-1630.84 -1548.99,-1551.28 -1548.99,-1551.28 0,0 -1243.02,0 -3002.38,0 -1759.35,0 -1654.17,1650.73 -1654.17,1650.73 0,0 0,11127.52 0,12519.7 0,1402.13 1338.64,1352.41 1338.64,1352.41l4866.9 0zm-11378.42 -7458.13c2619.91,3142.36 2237.44,6016.22 2170.51,6215.1 -1271.71,6612.87 -7974.46,11107.64 -7764.1,10868.98 4828.66,-5290.3 5344.99,-7040.47 6004.75,-8900.03 1109.15,-3560.01 -1453.38,-6732.2 -1453.38,-6732.2 0,0 -1788.04,-2197.66 -2992.81,-3619.68 -2830.27,-3629.62 -1969.71,-6065.94 -1864.53,-6523.37 793.62,-4415.21 5899.56,-9208.29 5899.56,-9208.29 -2419.11,3072.74 -3977.66,6762.03 -4140.21,7348.73 -1099.6,3649.51 1243.02,6831.64 1243.02,6831.64 0,0 2371.3,3003.14 2897.19,3719.12zm-17909.05 7249.3l-1854.97 0 -2591.22 -15214.57 2170.5 0 1453.38 10043.6 1654.17 -10043.6 2065.33 0 -2897.19 15214.57zm6731.43 0l0 -15214.57 1960.15 0 0 15214.57 -1960.15 0z"/>
 </g>
</svg>
